<svg width="109" height="118" viewBox="0 0 109 118" fill="none" xmlns="http://www.w3.org/2000/svg">
<mask id="mask0" mask-type="alpha" maskUnits="userSpaceOnUse" x="0" y="0" width="109" height="118">
<rect width="108.088" height="118" fill="#C4C4C4"/>
</mask>
<g mask="url(#mask0)">
<path d="M15.5899 32.3043L65.2488 3.64213C65.8729 3.29117 66.4581 3.21319 66.9652 3.40817L67.0433 3.44715H67.0823L68.6816 4.22708L66.9262 5.08497V5.16299V45.9529C66.9262 47.9807 65.6779 50.3594 64.1176 51.2564L15.785 79.1386L15.5119 81.4003L13.7564 80.5424C13.1713 80.1914 12.8203 79.4115 12.8203 78.3196V37.5297C12.7422 35.5799 14.0295 33.2012 15.5899 32.3043Z" fill="#553DB4"/>
<path d="M15.8962 32.4015L65.2686 3.64327C65.8892 3.29113 66.4709 3.21288 66.9751 3.40852L67.0527 3.44763H67.0915L68.6816 4.23017L66.9363 5.09094V5.16922V32.1276L44.4802 50.0477L13.957 34.5535C14.4224 33.6535 15.1205 32.8319 15.8962 32.4015Z" fill="#553DB4"/>
<path d="M14.7146 32.9468L19.6572 35.081L15.9404 38.0772L12.8166 36.7228C13.0934 35.2862 13.8051 33.8908 14.7146 32.9468Z" fill="#553DB4" fill-opacity="0.46"/>
<path d="M17.3362 81.0619L67.0117 52.6023C68.5726 51.7117 69.8213 49.3497 69.8213 47.3363V6.83454C69.8213 4.82107 68.5726 3.8918 67.0117 4.78238L17.3362 33.242C15.7753 34.1326 14.5266 36.4945 14.5266 38.508V79.0097C14.5266 81.0231 15.7753 81.9524 17.3362 81.0619Z" fill="#E2DCFF"/>
<path d="M18.8004 78.2411L64.9782 51.5723C66.4152 50.7559 67.5415 48.5789 67.5415 46.7129V9.50878C67.5415 7.64274 66.3764 6.78746 64.9782 7.60385L18.8004 34.2726C17.3634 35.089 16.2371 37.266 16.2371 39.1321V76.3362C16.2371 78.2022 17.4023 79.0575 18.8004 78.2411Z" fill="white"/>
<path d="M18.8004 78.2411L64.9782 51.5723C66.4152 50.7559 67.5415 48.5789 67.5415 46.7129V9.50878C67.5415 7.64274 66.3764 6.78746 64.9782 7.60385L18.8004 34.2726C17.3634 35.089 16.2371 37.266 16.2371 39.1321V76.3362C16.2371 78.2022 17.4023 79.0575 18.8004 78.2411Z" fill="white"/>
<path d="M16.8464 82.5673L23.4944 81.6724L66.4532 56.8485C67.8139 56.0703 70.2243 56.1481 71.8182 57.0819L102.259 74.6688L106.302 74.124V76.4197C106.341 76.9644 106.03 77.4702 105.369 77.8204L56.6563 105.952C55.2956 106.73 52.8852 106.652 51.2913 105.718L18.1294 86.5749C17.2352 86.0691 16.8076 85.4077 16.8076 84.7851V82.5673H16.8464Z" fill="#553DB4"/>
<path d="M48.7303 66.6295L51.8201 64.8687H85.573L102.234 74.4944L106.302 73.9466V76.2552C106.341 76.803 106.028 77.3117 105.363 77.6638L56.357 105.954C55.6138 106.385 54.597 106.541 53.5801 106.463L48.7303 66.6295Z" fill="#553DB4"/>
<path d="M56.1406 106.17C54.8154 106.674 52.9444 106.558 51.5802 105.899V100.782H56.1406V106.17Z" fill="#553DB4" fill-opacity="0.46"/>
<path d="M56.6566 103.654L105.382 75.4268C106.743 74.646 106.587 73.2405 104.993 72.3034L71.8225 53.0948C70.2281 52.1578 67.8172 52.0797 66.4561 52.8605L17.7308 81.0879C16.3698 81.8688 16.5253 83.2743 18.1197 84.2113L51.2902 103.42C52.8846 104.357 55.2956 104.474 56.6566 103.654Z" fill="#E2DCFF"/>
<path d="M18.117 83.6016L51.2855 102.594C52.8798 103.521 55.2906 103.598 56.6516 102.826L105.374 74.9158C105.841 74.6455 106.113 74.3367 106.229 73.9893C106.463 74.6455 106.152 75.3018 105.374 75.765L56.6516 103.675C55.2906 104.447 52.8798 104.37 51.2855 103.444L18.117 84.4508C17.0282 83.8332 16.6394 83.0225 16.8727 82.289C17.0282 82.7523 17.4559 83.2155 18.117 83.6016Z" fill="white"/>
<path d="M84.6252 66.5239L86.7976 65.2082C86.9881 65.0886 86.95 64.9291 86.7594 64.8095L84.206 63.2546C84.0154 63.135 83.7105 63.135 83.52 63.2148L81.3477 64.5304C81.1571 64.65 81.1952 64.8095 81.3858 64.9291L83.9392 66.484C84.1298 66.6036 84.4347 66.6036 84.6252 66.5239Z" fill="#553DB4"/>
<path d="M81.2053 68.2171L83.3776 66.9078C83.5682 66.7887 83.5301 66.63 83.3395 66.511L80.7861 64.9636C80.5955 64.8446 80.2906 64.8446 80.1001 64.924L77.9277 66.2333C77.7372 66.3523 77.7753 66.511 77.9659 66.63L80.5193 68.1774C80.748 68.2964 81.0529 68.3361 81.2053 68.2171Z" fill="#553DB4"/>
<path d="M77.7849 69.9534L79.9573 68.8569C80.1478 68.7573 80.1097 68.6244 79.9191 68.5247L77.3657 67.2289C77.1751 67.1293 76.8702 67.1293 76.6796 67.1957L74.5073 68.2921C74.3168 68.3918 74.3549 68.5247 74.5454 68.6244L77.0989 69.9201C77.2895 70.0198 77.5943 70.0198 77.7849 69.9534Z" fill="#553DB4"/>
<path d="M73.042 68.781L75.3867 67.356C75.5924 67.2265 75.5513 67.0538 75.3456 66.9242L73.042 65.5423C72.8363 65.4128 72.5072 65.4128 72.3015 65.4992L69.9567 66.9242C69.751 67.0538 69.7922 67.2265 69.9978 67.356L72.3015 68.7379C72.5072 68.8674 72.8363 68.9106 73.042 68.781Z" fill="#553DB4"/>
<path d="M69.622 70.5191L71.9668 69.3253C72.1725 69.2167 72.1314 69.072 71.9257 68.9635L69.622 67.8058C69.4163 67.6973 69.0873 67.6973 68.8816 67.7697L66.5368 68.9635C66.3311 69.072 66.3723 69.2167 66.578 69.3253L68.8816 70.4829C69.1284 70.5914 69.4575 70.5914 69.622 70.5191Z" fill="#553DB4"/>
<path d="M66.2016 72.2143L68.5464 71.0268C68.7521 70.9188 68.711 70.7749 68.5053 70.6669L66.2016 69.5153C65.996 69.4074 65.6668 69.4074 65.4612 69.4794L63.1164 70.6669C62.9107 70.7749 62.9518 70.9188 63.1575 71.0268L65.4612 72.1783C65.6668 72.2862 65.996 72.3222 66.2016 72.2143Z" fill="#553DB4"/>
<path d="M62.7812 74.5093L65.126 73.3155C65.3317 73.2069 65.2906 73.0622 65.0849 72.9537L62.7812 71.7961C62.5755 71.6876 62.2464 71.6875 62.0408 71.7599L59.696 72.9537C59.4903 73.0622 59.5314 73.2069 59.7371 73.3155L62.0408 74.4731C62.2876 74.5816 62.6166 74.5817 62.7812 74.5093Z" fill="#553DB4"/>
<path d="M59.3608 76.2045L61.7056 75.017C61.9113 74.909 61.8701 74.7651 61.6645 74.6571L59.3608 73.5056C59.1551 73.3976 58.826 73.3976 58.6203 73.4696L56.2756 74.6571C56.0699 74.7651 56.111 74.909 56.3167 75.017L58.6203 76.1685C58.826 76.2764 59.1551 76.3125 59.3608 76.2045Z" fill="#553DB4"/>
<path d="M55.9409 78.4897L58.2857 77.0571C58.4914 76.9268 58.4502 76.7532 58.2445 76.6229L55.9409 75.2338C55.7352 75.1036 55.4061 75.1036 55.2004 75.1904L52.8556 76.6229C52.6499 76.7532 52.6911 76.9268 52.8968 77.0571L55.2004 78.4463C55.4473 78.5765 55.7763 78.5765 55.9409 78.4897Z" fill="#553DB4"/>
<path d="M52.5205 80.1952L54.8653 79.0077C55.0709 78.8997 55.0298 78.7558 54.8241 78.6478L52.5205 77.4963C52.3148 77.3883 51.9857 77.3883 51.78 77.4603L49.4352 78.6478C49.2296 78.7558 49.2707 78.8997 49.4764 79.0077L51.78 80.1592C51.9857 80.2672 52.3148 80.3032 52.5205 80.1952Z" fill="#553DB4"/>
<path d="M49.1 82.4794L51.4448 81.0468C51.6505 80.9166 51.6094 80.7429 51.4037 80.6127L49.1 79.2235C48.8944 79.0933 48.5653 79.0933 48.3596 79.1801L46.0148 80.6127C45.8091 80.7429 45.8503 80.9166 46.056 81.0468L48.3596 82.436C48.6064 82.5662 48.9355 82.5662 49.1 82.4794Z" fill="#553DB4"/>
<path d="M45.6802 84.1745L48.0249 82.9918C48.2306 82.8843 48.1895 82.741 47.9838 82.6334L45.6802 81.4867C45.4745 81.3792 45.1454 81.3792 44.9397 81.4508L42.5949 82.6334C42.3892 82.741 42.4303 82.8843 42.636 82.9918L44.9397 84.1387C45.1454 84.282 45.4745 84.282 45.6802 84.1745Z" fill="#553DB4"/>
<path d="M42.2597 86.4701L44.6045 85.0376C44.8102 84.9073 44.7691 84.7337 44.5634 84.6035L42.2597 83.2143C42.054 83.084 41.725 83.084 41.5193 83.1709L39.1745 84.6035C38.9688 84.7337 39.01 84.9073 39.2156 85.0376L41.5193 86.4267C41.7661 86.557 42.0952 86.557 42.2597 86.4701Z" fill="#553DB4"/>
<path d="M67.9116 67.6537L70.2564 66.4662C70.4621 66.3583 70.4209 66.2143 70.2152 66.1064L67.9116 64.9548C67.7059 64.8468 67.3768 64.8468 67.1712 64.9188L64.8263 66.1064C64.6207 66.2143 64.6618 66.3583 64.8675 66.4662L67.1712 67.6177C67.3768 67.7257 67.7059 67.7617 67.9116 67.6537Z" fill="#553DB4"/>
<path d="M71.3325 65.3887L73.6773 64.1949C73.883 64.0864 73.8418 63.9417 73.6361 63.8331L71.3325 62.6755C71.1268 62.5669 70.7977 62.5669 70.592 62.6393L68.2472 63.8331C68.0416 63.9417 68.0827 64.0864 68.2884 64.1949L70.592 65.3525C70.7977 65.461 71.1268 65.461 71.3325 65.3887Z" fill="#553DB4"/>
<path d="M74.9514 63.6447L79.3925 60.9053C79.5746 60.7879 79.5382 60.6314 79.3561 60.514L77.3176 59.2616C77.1356 59.1442 76.8444 59.1443 76.6623 59.2225L72.2212 61.9619C72.0392 62.0793 72.0756 62.2358 72.2576 62.3532L74.2962 63.6055C74.4782 63.7621 74.7694 63.7621 74.9514 63.6447Z" fill="#553DB4"/>
<path d="M72.4643 61.3788L76.5272 59.175C76.7324 59.059 76.6914 58.9043 76.4862 58.7883L74.188 57.5511C73.9828 57.4351 73.6545 57.435 73.4493 57.5124L69.3864 59.7163C69.1812 59.8323 69.2222 59.9869 69.4274 60.1029L71.7256 61.3401C71.9719 61.4561 72.3002 61.4948 72.4643 61.3788Z" fill="#553DB4"/>
<path d="M64.4912 69.3794L66.836 68.1856C67.0416 68.0771 67.0005 67.9324 66.7948 67.8238L64.4912 66.6662C64.2855 66.5577 63.9564 66.5576 63.7507 66.63L61.4059 67.8238C61.2003 67.9324 61.2414 68.0771 61.4471 68.1856L63.7507 69.3432C63.9975 69.4517 64.3266 69.4518 64.4912 69.3794Z" fill="#553DB4"/>
<path d="M61.0717 71.6311L63.4165 70.2061C63.6222 70.0766 63.5811 69.9038 63.3754 69.7743L61.0717 68.3925C60.8661 68.2629 60.537 68.2629 60.3313 68.3492L57.9865 69.7743C57.7808 69.9038 57.8219 70.0766 58.0276 70.2061L60.3313 71.5879C60.537 71.7175 60.8661 71.7607 61.0717 71.6311Z" fill="#553DB4"/>
<path d="M57.6509 73.3691L59.9956 72.1753C60.2013 72.0668 60.1602 71.9221 59.9545 71.8136L57.6509 70.6559C57.4452 70.5474 57.1161 70.5474 56.9104 70.6198L54.5656 71.8136C54.3599 71.9221 54.401 72.0668 54.6067 72.1753L56.9104 73.333C57.1572 73.4415 57.4863 73.4415 57.6509 73.3691Z" fill="#553DB4"/>
<path d="M54.2304 75.6219L56.5752 74.1968C56.7809 74.0673 56.7397 73.8945 56.5341 73.765L54.2304 72.3832C54.0247 72.2536 53.6957 72.2536 53.49 72.34L51.1452 73.765C50.9395 73.8945 50.9806 74.0673 51.1863 74.1968L53.49 75.5787C53.6957 75.7082 54.0247 75.7514 54.2304 75.6219Z" fill="#553DB4"/>
<path d="M50.81 77.3594L53.1548 76.1656C53.3605 76.057 53.3194 75.9123 53.1137 75.8038L50.81 74.6462C50.6044 74.5376 50.2752 74.5376 50.0696 74.61L47.7248 75.8038C47.5191 75.9123 47.5602 76.057 47.7659 76.1656L50.0696 77.3232C50.3164 77.4317 50.6455 77.4317 50.81 77.3594Z" fill="#553DB4"/>
<path d="M47.6376 79.5983L49.7479 78.1792C49.9331 78.0501 49.896 77.8781 49.7109 77.7491L47.6376 76.373C47.4525 76.2439 47.1563 76.244 46.9712 76.33L44.8609 77.7491C44.6758 77.8781 44.7128 78.0501 44.8979 78.1792L46.9712 79.5553C47.1563 79.7274 47.4525 79.7274 47.6376 79.5983Z" fill="#553DB4"/>
<path d="M44.2177 81.3501L46.328 80.1563C46.5131 80.0478 46.4761 79.9031 46.291 79.7946L44.2177 78.6369C44.0326 78.5284 43.7364 78.5284 43.5513 78.6007L41.441 79.7946C41.2559 79.9031 41.2929 80.0478 41.478 80.1563L43.5513 81.3139C43.7734 81.4225 44.0696 81.4225 44.2177 81.3501Z" fill="#553DB4"/>
<path d="M40.7973 83.5886L42.9076 82.1694C43.0927 82.0404 43.0557 81.8684 42.8705 81.7394L40.7973 80.3632C40.6122 80.2342 40.316 80.2342 40.1309 80.3202L38.0206 81.7394C37.8355 81.8684 37.8725 82.0404 38.0576 82.1694L40.1309 83.5456C40.316 83.7176 40.6122 83.7176 40.7973 83.5886Z" fill="#553DB4"/>
<path d="M37.3774 85.3399L39.4877 84.1461C39.6728 84.0375 39.6358 83.8928 39.4507 83.7843L37.3774 82.6266C37.1923 82.5181 36.8961 82.5181 36.7109 82.5905L34.6006 83.7843C34.4155 83.8928 34.4525 84.0375 34.6377 84.1461L36.7109 85.3037C36.9331 85.4122 37.2293 85.4122 37.3774 85.3399Z" fill="#553DB4"/>
<path d="M31.247 88.7569L36.0609 85.9845C36.255 85.8673 36.2162 85.7111 36.022 85.594L33.8481 84.3444C33.654 84.2273 33.3434 84.2273 33.1493 84.3054L28.3354 87.0779C28.1413 87.195 28.1802 87.3512 28.3743 87.4683L30.5482 88.7179C30.7812 88.835 31.0917 88.835 31.247 88.7569Z" fill="#553DB4"/>
<path d="M24.494 84.7408L28.647 82.4934C28.8467 82.3811 28.8068 82.2312 28.6071 82.1189L26.3709 80.9202C26.1712 80.8079 25.8517 80.8079 25.652 80.8828L21.4989 83.1302C21.2993 83.2425 21.3393 83.3924 21.5389 83.5047L23.7752 84.7033C24.0148 84.8532 24.3342 84.8532 24.494 84.7408Z" fill="#553DB4"/>
<path d="M58.4692 69.3691L60.5795 67.9365C60.7646 67.8062 60.7276 67.6326 60.5424 67.5024L58.4692 66.1132C58.2841 65.983 57.9879 65.9829 57.8027 66.0698L55.6924 67.5024C55.5073 67.6326 55.5443 67.8062 55.7295 67.9365L57.8027 69.3256C58.0249 69.4559 58.2841 69.4559 58.4692 69.3691Z" fill="#553DB4"/>
<path d="M62.2109 67.0839L64.5557 65.8964C64.7614 65.7884 64.7202 65.6445 64.5146 65.5365L62.2109 64.385C62.0052 64.277 61.6761 64.277 61.4704 64.349L59.1257 65.5365C58.92 65.6445 58.9611 65.7884 59.1668 65.8964L61.4704 67.0479C61.6761 67.1559 62.0052 67.1918 62.2109 67.0839Z" fill="#553DB4"/>
<path d="M65.6318 65.3606L67.9766 63.9356C68.1823 63.806 68.1411 63.6333 67.9355 63.5037L65.6318 62.1219C65.4261 61.9924 65.097 61.9924 64.8913 62.0788L62.5466 63.5037C62.3409 63.6333 62.382 63.806 62.5877 63.9356L64.8913 65.3174C65.1382 65.447 65.4673 65.4902 65.6318 65.3606Z" fill="#553DB4"/>
<path d="M69.0522 63.0822L71.397 61.8996C71.6027 61.7921 71.5616 61.6487 71.3559 61.5412L69.0522 60.3944C68.8465 60.2869 68.5174 60.2869 68.3117 60.3586L65.967 61.5412C65.7613 61.6487 65.8024 61.7921 66.0081 61.8996L68.3117 63.0464C68.5586 63.1897 68.8877 63.1897 69.0522 63.0822Z" fill="#553DB4"/>
<path d="M55.0487 71.0627L57.1591 69.88C57.3442 69.7725 57.3072 69.6292 57.122 69.5217L55.0487 68.3749C54.8636 68.2674 54.5675 68.2673 54.3823 68.339L52.272 69.5217C52.0869 69.6292 52.124 69.7725 52.3091 69.88L54.3823 71.0268C54.6045 71.1702 54.9006 71.1702 55.0487 71.0627Z" fill="#553DB4"/>
<path d="M51.6288 73.3593L53.7391 71.9267C53.9242 71.7965 53.8872 71.6228 53.7021 71.4926L51.6288 70.1034C51.4437 69.9732 51.1475 69.9732 50.9624 70.06L48.8521 71.4926C48.667 71.6228 48.704 71.7965 48.8891 71.9267L50.9624 73.3159C51.1475 73.4461 51.4437 73.4461 51.6288 73.3593Z" fill="#553DB4"/>
<path d="M48.2079 75.0534L50.3182 73.8707C50.5033 73.7632 50.4663 73.6199 50.2812 73.5124L48.2079 72.3656C48.0228 72.2581 47.7266 72.2581 47.5415 72.3297L45.4312 73.5124C45.2461 73.6199 45.2831 73.7632 45.4683 73.8707L47.5415 75.0176C47.7637 75.1609 48.0598 75.1609 48.2079 75.0534Z" fill="#553DB4"/>
<path d="M45.1098 76.7891L47.4546 75.5952C47.6603 75.4867 47.6192 75.342 47.4135 75.2335L45.1098 74.0759C44.9042 73.9673 44.575 73.9673 44.3694 74.0397L42.0246 75.2335C41.8189 75.342 41.86 75.4867 42.0657 75.5952L44.3694 76.7529C44.575 76.8614 44.9042 76.8614 45.1098 76.7891Z" fill="#553DB4"/>
<path d="M41.3676 79.0436L43.4779 77.861C43.663 77.7535 43.626 77.6101 43.4409 77.5026L41.3676 76.3558C41.1825 76.2483 40.8863 76.2483 40.7012 76.32L38.5909 77.5026C38.4057 77.6101 38.4428 77.7535 38.6279 77.861L40.7012 79.0078C40.9233 79.1511 41.2195 79.1511 41.3676 79.0436Z" fill="#553DB4"/>
<path d="M38.269 80.765L40.6138 79.5775C40.8195 79.4696 40.7783 79.3256 40.5727 79.2177L38.269 78.0661C38.0633 77.9582 37.7342 77.9582 37.5285 78.0301L35.1838 79.2177C34.9781 79.3256 35.0192 79.4696 35.2249 79.5775L37.5285 80.7291C37.7342 80.837 38.0633 80.873 38.269 80.765Z" fill="#553DB4"/>
<path d="M34.8491 83.0183L37.1939 81.5991C37.3996 81.4701 37.3584 81.2981 37.1527 81.1691L34.8491 79.7929C34.6434 79.6639 34.3143 79.6639 34.1086 79.7499L31.7638 81.1691C31.5581 81.2981 31.5993 81.4701 31.805 81.5991L34.1086 82.9753C34.3555 83.1473 34.6845 83.1473 34.8491 83.0183Z" fill="#553DB4"/>
<path d="M31.4287 84.7553L33.7735 83.5678C33.9791 83.4598 33.938 83.3159 33.7323 83.2079L31.4287 82.0564C31.223 81.9484 30.8939 81.9484 30.6882 82.0204L28.3434 83.2079C28.1378 83.3159 28.1789 83.4598 28.3846 83.5678L30.6882 84.7193C30.8939 84.8272 31.223 84.8632 31.4287 84.7553Z" fill="#553DB4"/>
<path d="M28.0087 87.009L30.3535 85.5899C30.5592 85.4608 30.5181 85.2888 30.3124 85.1598L28.0087 83.7836C27.803 83.6546 27.474 83.6546 27.2683 83.7406L24.9235 85.1598C24.7178 85.2888 24.759 85.4608 24.9647 85.5899L27.2683 86.966C27.5151 87.138 27.8442 87.138 28.0087 87.009Z" fill="#553DB4"/>
<path d="M60.5014 64.2486L62.8462 63.0547C63.0519 62.9462 63.0107 62.8015 62.8051 62.693L60.5014 61.5354C60.2957 61.4268 59.9667 61.4268 59.761 61.4991L57.4162 62.693C57.2105 62.8015 57.2516 62.9462 57.4573 63.0547L59.761 64.2124C60.0078 64.3209 60.3369 64.3209 60.5014 64.2486Z" fill="#553DB4"/>
<path d="M63.5995 62.4963L65.7098 61.0772C65.895 60.9481 65.8579 60.7761 65.6728 60.6471L63.5995 59.2709C63.4144 59.1419 63.1182 59.1419 62.9331 59.2279L60.8228 60.6471C60.6377 60.7761 60.6747 60.9481 60.8598 61.0772L62.9331 62.4533C63.1552 62.6253 63.4514 62.6253 63.5995 62.4963Z" fill="#553DB4"/>
<path d="M67.0195 60.2436L69.1298 59.0561C69.3149 58.9481 69.2779 58.8042 69.0927 58.6962L67.0195 57.5446C66.8343 57.4367 66.5381 57.4367 66.353 57.5087L64.2427 58.6962C64.0576 58.8042 64.0946 58.9481 64.2798 59.0561L66.353 60.2076C66.5752 60.3155 66.8714 60.3515 67.0195 60.2436Z" fill="#553DB4"/>
<path d="M70.4398 58.538L72.5502 57.1055C72.7353 56.9752 72.6983 56.8016 72.5132 56.6713L70.4398 55.2821C70.2547 55.1519 69.9586 55.1519 69.7735 55.2387L67.6631 56.6713C67.478 56.8016 67.5151 56.9752 67.7002 57.1055L69.7735 58.4946C69.9956 58.6248 70.2917 58.6248 70.4398 58.538Z" fill="#553DB4"/>
<path d="M66.8831 56.2468L69.1223 54.954C69.3187 54.8365 69.2795 54.6798 69.083 54.5623L68.3366 54.1314C68.1402 54.0138 67.8259 54.0139 67.6295 54.0922L65.3903 55.385C65.1938 55.5025 65.2331 55.6592 65.4295 55.7767L66.176 56.2077C66.3724 56.3252 66.6867 56.3644 66.8831 56.2468Z" fill="#553DB4"/>
<path d="M62.6609 59.1134L64.5802 57.8113C64.7486 57.6929 64.7149 57.5351 64.5466 57.4167L63.9068 56.9826C63.7384 56.8643 63.4691 56.8643 63.3007 56.9432L61.3813 58.2453C61.213 58.3637 61.2466 58.5215 61.415 58.6399L62.0548 59.0739C62.2568 59.1923 62.5262 59.1923 62.6609 59.1134Z" fill="#553DB4"/>
<path d="M59.4724 60.8238L61.7117 59.5217C61.9081 59.4034 61.8688 59.2455 61.6724 59.1272L60.926 58.6931C60.7296 58.5747 60.4153 58.5747 60.2188 58.6536L57.9796 59.9558C57.7832 60.0741 57.8225 60.232 58.0189 60.3503L58.7653 60.7844C59.001 60.9027 59.3153 60.9027 59.4724 60.8238Z" fill="#553DB4"/>
<path d="M56.0525 63.0881L58.2918 61.7954C58.4882 61.6779 58.4489 61.5212 58.2525 61.4036L57.5061 60.9727C57.3097 60.8552 56.9954 60.8552 56.7989 60.9335L54.5597 62.2263C54.3633 62.3438 54.4026 62.5005 54.599 62.6181L55.3454 63.049C55.5418 63.1665 55.8561 63.2057 56.0525 63.0881Z" fill="#553DB4"/>
<path d="M52.6321 64.7981L54.8713 63.5054C55.0678 63.3878 55.0285 63.2311 54.8321 63.1136L54.0856 62.6826C53.8892 62.5651 53.575 62.5651 53.3786 62.6435L51.1393 63.9363C50.9429 64.0538 50.9821 64.2105 51.1786 64.328L51.925 64.7589C52.1214 64.8765 52.4357 64.9156 52.6321 64.7981Z" fill="#553DB4"/>
<path d="M33.8201 75.6446L36.0593 74.3425C36.2558 74.2242 36.2165 74.0663 36.0201 73.948L35.2736 73.5139C35.0772 73.3955 34.763 73.3955 34.5665 73.4744L32.3273 74.7766C32.1308 74.8949 32.1702 75.0528 32.3666 75.1711L33.113 75.6052C33.3094 75.7235 33.6237 75.7235 33.8201 75.6446Z" fill="#553DB4"/>
<path d="M30.4002 77.9254L32.6394 76.6233C32.8358 76.5049 32.7966 76.3471 32.6001 76.2287L31.8537 75.7946C31.6573 75.6763 31.343 75.6763 31.1466 75.7552L28.9074 77.0573C28.7109 77.1757 28.7502 77.3335 28.9466 77.4519L29.6931 77.8859C29.9288 78.0043 30.2431 78.0043 30.4002 77.9254Z" fill="#553DB4"/>
<path d="M26.9802 79.6353L29.2195 78.3333C29.4159 78.2149 29.3766 78.0571 29.1802 77.9387L28.4338 77.5046C28.2374 77.3862 27.9231 77.3862 27.7267 77.4652L25.4874 78.7673C25.291 78.8857 25.3303 79.0435 25.5267 79.1619L26.2731 79.5959C26.5088 79.7143 26.8231 79.7143 26.9802 79.6353Z" fill="#553DB4"/>
<path d="M23.5594 81.3448L25.7986 80.0427C25.995 79.9244 25.9557 79.7665 25.7593 79.6482L25.0129 79.2141C24.8165 79.0957 24.5022 79.0957 24.3058 79.1746L22.0665 80.4768C21.8701 80.5951 21.9094 80.753 22.1058 80.8713L22.8522 81.3054C23.0486 81.4237 23.3629 81.4237 23.5594 81.3448Z" fill="#553DB4"/>
<path d="M57.0805 66.4875L59.4253 65.0683C59.631 64.9393 59.5899 64.7673 59.3842 64.6383L57.0805 63.2622C56.8749 63.1331 56.5457 63.1331 56.3401 63.2191L53.9953 64.6383C53.7896 64.7673 53.8307 64.9393 54.0364 65.0683L56.3401 66.4445C56.5457 66.6165 56.8749 66.6165 57.0805 66.4875Z" fill="#553DB4"/>
<path d="M53.6606 68.2388L56.0054 67.0449C56.2111 66.9364 56.1699 66.7917 55.9642 66.6832L53.6606 65.5256C53.4549 65.417 53.1259 65.417 52.9202 65.4894L50.5754 66.6832C50.3697 66.7917 50.4108 66.9364 50.6165 67.0449L52.9202 68.2026C53.167 68.3111 53.4961 68.3111 53.6606 68.2388Z" fill="#553DB4"/>
<path d="M50.2402 70.4777L52.585 69.0585C52.7907 68.9295 52.7495 68.7575 52.5439 68.6285L50.2402 67.2524C50.0345 67.1233 49.7054 67.1234 49.4997 67.2094L47.155 68.6285C46.9493 68.7575 46.9904 68.9295 47.1961 69.0585L49.4997 70.4347C49.7054 70.6068 50.0345 70.6068 50.2402 70.4777Z" fill="#553DB4"/>
<path d="M46.8203 72.229L49.1651 71.0352C49.3708 70.9267 49.3296 70.7819 49.1239 70.6734L46.8203 69.5158C46.6146 69.4073 46.2855 69.4073 46.0798 69.4796L43.735 70.6734C43.5294 70.7819 43.5705 70.9267 43.7762 71.0352L46.0798 72.1928C46.3267 72.3014 46.6146 72.3014 46.8203 72.229Z" fill="#553DB4"/>
<path d="M43.3999 73.9133L45.7447 72.7306C45.9503 72.6231 45.9092 72.4797 45.7035 72.3722L43.3999 71.2254C43.1942 71.1179 42.8651 71.1179 42.6594 71.1896L40.3146 72.3722C40.1089 72.4797 40.1501 72.6231 40.3558 72.7306L42.6594 73.8774C42.9062 74.0208 43.2353 74.0208 43.3999 73.9133Z" fill="#553DB4"/>
<path d="M39.9795 76.1922L42.3243 74.7672C42.5299 74.6376 42.4888 74.4649 42.2831 74.3353L39.9795 72.9535C39.7738 72.8239 39.4447 72.8239 39.239 72.9103L36.8942 74.3353C36.6885 74.4649 36.7297 74.6376 36.9353 74.7672L39.239 76.149C39.4447 76.2785 39.7738 76.3217 39.9795 76.1922Z" fill="#553DB4"/>
<path d="M36.5591 77.9035L38.9038 76.7209C39.1095 76.6134 39.0684 76.47 38.8627 76.3625L36.5591 75.2157C36.3534 75.1082 36.0243 75.1082 35.8186 75.1798L33.4738 76.3625C33.2681 76.47 33.3093 76.6134 33.5149 76.7209L35.8186 77.8677C36.0654 78.011 36.3945 78.011 36.5591 77.9035Z" fill="#553DB4"/>
<path d="M33.1381 80.1819L35.483 78.7569C35.6886 78.6274 35.6475 78.4546 35.4418 78.3251L33.1381 76.9432C32.9325 76.8137 32.6034 76.8137 32.3977 76.9L30.0529 78.3251C29.8472 78.4546 29.8884 78.6274 30.094 78.7569L32.3977 80.1387C32.6034 80.2683 32.9325 80.3115 33.1381 80.1819Z" fill="#553DB4"/>
<path d="M29.7187 81.8932L32.0635 80.7106C32.2692 80.6031 32.2281 80.4598 32.0224 80.3522L29.7187 79.2054C29.513 79.0979 29.1839 79.0979 28.9782 79.1696L26.6335 80.3522C26.4278 80.4598 26.4689 80.6031 26.6746 80.7106L28.9782 81.8574C29.2251 82.0008 29.5542 82.0007 29.7187 81.8932Z" fill="#553DB4"/>
<path d="M76.2944 66.4939L82.8049 62.6544C82.9999 62.5344 82.9609 62.3745 82.766 62.2545L80.5828 60.9746C80.3879 60.8547 80.076 60.8547 79.881 60.9347L73.3704 64.7741C73.1755 64.8941 73.2145 65.054 73.4094 65.174L75.5926 66.4539C75.7875 66.6139 76.0994 66.6138 76.2944 66.4939Z" fill="#553DB4"/>
<path d="M34.6801 90.4441L41.1907 86.9886C41.3856 86.8806 41.3466 86.7366 41.1517 86.6286L38.9685 85.4768C38.7736 85.3688 38.4617 85.3688 38.2668 85.4408L31.7562 88.8963C31.5613 89.0043 31.6002 89.1483 31.7952 89.2562L33.9783 90.4081C34.1733 90.5521 34.4852 90.5521 34.6801 90.4441Z" fill="#553DB4"/>
<path d="M48.1423 87.0454L50.3147 85.7297C50.5052 85.6101 50.4671 85.4506 50.2766 85.331L47.7231 83.7761C47.5325 83.6565 47.2276 83.6565 47.0371 83.7362L44.8647 85.0519C44.6742 85.1715 44.7123 85.331 44.9028 85.4506L47.4563 87.0055C47.6469 87.1251 47.9518 87.1251 48.1423 87.0454Z" fill="#553DB4"/>
<path d="M72.8559 72.7967L76.5294 70.8165C76.7312 70.7022 76.6909 70.5499 76.489 70.4357L73.7843 68.9505C73.5825 68.8363 73.2596 68.8363 73.0577 68.9125L69.3842 70.8926C69.1823 71.0069 69.2227 71.1592 69.4245 71.2734L72.1292 72.7585C72.3714 72.8728 72.6944 72.8728 72.8559 72.7967Z" fill="#553DB4"/>
<path d="M51.4871 85.3225L54.878 83.3502C55.0643 83.2364 55.0271 83.0847 54.8407 82.9709L52.3441 81.4917C52.1578 81.3779 51.8597 81.3779 51.6734 81.4538L48.2824 83.4261C48.0961 83.5398 48.1334 83.6916 48.3197 83.8053L50.8163 85.2846C51.0399 85.3984 51.338 85.4363 51.4871 85.3225Z" fill="#553DB4"/>
<path d="M68.0188 75.6467L71.4097 73.6666C71.596 73.5523 71.5588 73.4 71.3725 73.2858L68.8758 71.8006C68.6895 71.6864 68.3914 71.6864 68.2051 71.7626L64.8141 73.7427C64.6278 73.857 64.6651 74.0093 64.8514 74.1235L67.348 75.6087C67.5716 75.7229 67.8697 75.7229 68.0188 75.6467Z" fill="#553DB4"/>
<path d="M68.1879 71.7095L52.8665 80.5526C52.672 80.669 52.672 80.8241 52.8665 80.9405L55.5107 82.4531C55.7052 82.5695 56.0163 82.5695 56.2107 82.4531L71.5322 73.61L68.1879 71.7095Z" fill="#553DB4"/>
<path d="M39.3788 90.6644L36.9102 92.0061C36.7622 92.081 36.7992 92.2309 36.9472 92.3058L37.9462 92.9052C38.0942 92.9802 38.3532 93.0176 38.5012 92.9427L40.9697 91.601C41.1177 91.526 41.0808 91.3762 40.9328 91.3013L39.9338 90.7018C39.7488 90.6269 39.5268 90.5895 39.3788 90.6644Z" fill="#553DB4"/>
<path d="M42.6825 88.7767L40.2139 90.1184C40.0659 90.1933 40.1029 90.3432 40.2509 90.4181L41.2499 91.0175C41.3979 91.0925 41.6569 91.1299 41.8049 91.055L44.2735 89.7133C44.4215 89.6383 44.3845 89.4885 44.2365 89.4136L43.2375 88.8141C43.0525 88.7392 42.8305 88.7018 42.6825 88.7767Z" fill="#553DB4"/>
<path d="M40.7616 87.6375L38.293 88.9793C38.145 89.0542 38.182 89.204 38.33 89.279L39.329 89.8784C39.477 89.9533 39.736 89.9908 39.884 89.9158L42.3526 88.5741C42.5006 88.4992 42.4636 88.3494 42.3156 88.2744L41.3166 87.675C41.1316 87.6001 40.9096 87.5626 40.7616 87.6375Z" fill="#553DB4"/>
<path d="M45.9867 86.8885L43.5181 88.2302C43.3701 88.3052 43.4071 88.455 43.5551 88.53L44.5541 89.1294C44.7021 89.2043 44.9611 89.2417 45.1091 89.1668L47.5777 87.8251C47.7257 87.7502 47.6887 87.6003 47.5407 87.5254L46.5417 86.926C46.3567 86.851 46.1347 86.8136 45.9867 86.8885Z" fill="#553DB4"/>
<path d="M45.1697 41.4972C45.2479 41.4972 45.3652 41.4586 45.4434 41.42L61.7074 32.1521C62.0984 31.9204 62.4111 31.3026 62.4111 30.8005V18.173C62.4111 17.7869 62.2157 17.5552 61.9811 17.5552C61.9029 17.5552 61.7856 17.5938 61.7074 17.6324L45.4434 26.9003C45.0524 27.132 44.7396 27.7498 44.7396 28.2518V40.8794C44.7396 41.2655 44.896 41.4972 45.1697 41.4972Z" fill="#E2DCFF"/>
<path d="M56.366 32.8442L56.4853 32.77C56.9228 32.5471 57.2808 31.9158 57.2808 31.3958V25.6021C57.2808 25.0821 56.9228 24.8221 56.4853 25.045L56.366 25.1193C55.9286 25.3421 55.5706 25.9735 55.5706 26.4934V32.2871C55.5706 32.8442 55.9286 33.1042 56.366 32.8442Z" fill="#553DB4"/>
<path d="M53.5159 35.136L53.6352 35.052C54.0727 34.8 54.4307 34.0861 54.4307 33.4982V29.6766C54.4307 29.0886 54.0727 28.7947 53.6352 29.0467L53.5159 29.1307C53.0785 29.3826 52.7205 30.0965 52.7205 30.6845V34.5061C52.7603 35.094 53.1182 35.388 53.5159 35.136Z" fill="#553DB4"/>
<path d="M50.095 36.8515L50.2144 36.7728C50.6518 36.5368 51.0098 35.868 51.0098 35.3172V26.7804C51.0098 26.2297 50.6518 25.9543 50.2144 26.1903L50.095 26.269C49.6576 26.505 49.2996 27.1738 49.2996 27.7246V36.2614C49.2996 36.8122 49.6576 37.0876 50.095 36.8515Z" fill="#553DB4"/>
<path d="M30.0118 37.9895L40.0853 32.4594C40.4757 32.2368 40.749 31.7172 40.749 31.2347C40.749 30.7522 40.4367 30.5295 40.0853 30.7522L30.0118 36.2822C29.6213 36.5049 29.3481 37.0245 29.3481 37.507C29.3481 37.9895 29.6213 38.2122 30.0118 37.9895Z" fill="#553DB4"/>
<path d="M36.3108 37.9869L40.0568 35.9469C40.464 35.7159 40.749 35.1771 40.749 34.6767C40.749 34.1763 40.4233 33.9454 40.0568 34.1763L36.3108 36.2163C35.9036 36.4473 35.6186 36.9861 35.6186 37.4865C35.6186 37.9869 35.9036 38.2178 36.3108 37.9869Z" fill="#553DB4"/>
<path d="M30.5339 41.4073L33.8637 39.3673C34.2257 39.1363 34.479 38.5975 34.479 38.0971C34.479 37.5967 34.1895 37.3658 33.8637 37.5967L30.5339 39.6367C30.172 39.8677 29.9186 40.4065 29.9186 40.9069C29.9186 41.4073 30.2082 41.6382 30.5339 41.4073Z" fill="#553DB4"/>
<path d="M22.6383 45.9857L28.0778 42.8937C28.4898 42.6496 28.7783 42.0801 28.7783 41.5512C28.7783 41.0223 28.4486 40.7781 28.0778 41.0222L22.6383 44.1143C22.2262 44.3584 21.9377 44.928 21.9377 45.4569C21.9377 45.9451 22.2674 46.1892 22.6383 45.9857Z" fill="#553DB4"/>
<path d="M27.1797 46.554L40.0705 39.373C40.4696 39.1413 40.749 38.6008 40.749 38.0989C40.749 37.597 40.4297 37.3653 40.0705 37.597L27.1797 44.778C26.7806 45.0097 26.5012 45.5502 26.5012 46.0521C26.4613 46.554 26.7806 46.747 27.1797 46.554Z" fill="#553DB4"/>
<path d="M22.037 53.375L40.0794 42.8598C40.4733 42.6199 40.749 42.0601 40.749 41.5403C40.749 41.0206 40.4339 40.7807 40.0794 41.0206L22.037 51.5358C21.6431 51.7757 21.3674 52.3355 21.3674 52.8552C21.3674 53.375 21.6431 53.6148 22.037 53.375Z" fill="#553DB4"/>
<path d="M20.332 43.7082L26.9627 39.9625C27.3598 39.7284 27.6377 39.1822 27.6377 38.675C27.6377 38.1678 27.3201 37.9337 26.9627 38.1678L20.332 41.9133C19.935 42.1474 19.657 42.6937 19.657 43.2009C19.657 43.6691 19.9747 43.9032 20.332 43.7082Z" fill="#553DB4"/>
<path d="M58.9908 43.777L62.4111 42.0669V45.4872L58.9908 47.1973V43.777Z" fill="#553DB4"/>
<path d="M53.8605 43.902L57.2808 42.0669V48.7825L53.8605 50.6176V43.902Z" fill="#E2DCFF"/>
<path d="M48.7301 48.5298L52.1504 46.6274V51.5656L48.7301 53.468V48.5298Z" fill="#E2DCFF"/>
<path d="M44.1693 50.1583L47.0195 48.3374V54.4973L44.1693 56.3181V50.1583Z" fill="#E2DCFF"/>
<path d="M39.0389 53.1012L41.8892 51.1875V57.2545L39.0389 59.1682V53.1012Z" fill="#553DB4"/>
<path d="M33.9088 54.7383L37.3291 52.8984V60.1794L33.9088 62.0192V54.7383Z" fill="#553DB4"/>
<path d="M28.7784 56.9785L32.1987 55.1782V63.0688L28.7784 64.869V56.9785Z" fill="#E2DCFF"/>
<path d="M24.2176 57.605L27.0679 55.748V65.8621L24.2176 67.7191V57.605Z" fill="#553DB4"/>
<path d="M44.1694 84.5359L50.459 80.8306L56.7104 84.5359L50.459 88.2412L44.1694 84.5359Z" fill="#553DB4" fill-opacity="0.46"/>
<path d="M64.1218 85.1258L70.6574 81.4009L77.2329 85.1258L70.6574 88.8115L64.1218 85.1258Z" fill="#553DB4" fill-opacity="0.46"/>
<path d="M50.6086 92.9324L57.1442 89.2075L63.7197 92.9324L57.1442 96.6181L50.6086 92.9324Z" fill="#553DB4" fill-opacity="0.46"/>
<path d="M77.8022 77.675L84.0727 73.9893L90.3433 77.675L84.0727 81.3999L77.8022 77.675Z" fill="#553DB4" fill-opacity="0.46"/>
<path d="M16.8068 105.342V90.434L21.3672 87.6704V102.539L16.8068 105.342Z" fill="#C13F27"/>
<path d="M16.8071 90.434L11.6767 87.6704V102.539L16.8071 105.342V90.434Z" fill="#EF8F00"/>
<path d="M16.8068 105.342V90.434L21.3672 87.6704V102.539L16.8068 105.342Z" fill="#FFAD00"/>
<path d="M27.068 111.043V102.929L31.6284 100.212V108.326L27.068 111.043Z" fill="#FFAD00"/>
<path d="M27.0679 102.929L21.9374 100.212V108.326L27.0679 111.043V102.929Z" fill="#EF8F00"/>
<path d="M31.6284 100.212L26.783 97.3613L21.9376 100.212L26.783 103.062L31.6284 100.212Z" fill="#FFD988"/>
<path d="M6.54655 99.072V79.02L11.1069 76.27V96.3219L6.54655 99.072Z" fill="#FFAD00"/>
<path d="M6.54688 79.02L1.41644 76.27V96.3219L6.54688 99.072V79.02Z" fill="#EF8F00"/>
<path d="M11.1069 76.2697L6.26155 73.4194L1.41611 76.2697L6.26155 79.1199L11.1069 76.2697Z" fill="#FFD988"/>
<path d="M21.3672 87.6905L16.5218 84.8203L11.6764 87.6905L16.5218 90.5208L21.3672 87.6905Z" fill="#FFD988"/>
<path d="M57.2803 93.372V82.2561L50.4397 78.5508V89.6667L57.2803 93.372Z" fill="#553DB4"/>
<path d="M57.2807 82.2561L63.5513 78.5508V89.6667L57.2807 93.372V82.2561Z" fill="#A99DD8"/>
<path d="M50.4402 78.6585L57.0157 75.0479L63.5513 78.6585L57.0157 82.5999L50.4402 78.6585Z" fill="#E2DCFF"/>
<path d="M70.3923 65.7125L77.2329 62.0181V81.6956L70.3923 85.3901V65.7125Z" fill="#A99DD8"/>
<path d="M70.3916 85.3901V65.7125L64.1211 62.0181V81.6956L70.3916 85.3901Z" fill="#553DB4"/>
<path d="M64.1203 62.1384L70.656 58.7637L77.2314 62.1384L70.656 65.8437L64.1203 62.1384Z" fill="#E2DCFF"/>
<path d="M84.0718 77.4101V50.3291L77.8012 46.6274V73.7473L84.0718 77.4101Z" fill="#EF8F00"/>
<path d="M84.0722 50.3291L90.3428 46.6274V73.7473L84.0722 77.4101V50.3291Z" fill="#FFAD00"/>
<path d="M77.8017 46.9123L84.0722 43.207L90.3428 46.9123L84.0722 50.6177L77.8017 46.9123Z" fill="#FFD988"/>
<path d="M87.8205 62.1858C87.8205 62.1858 88.9839 61.6721 89.7165 62.4426C90.449 63.1763 91.4401 64.9373 91.4832 66.148C91.5263 67.322 90.3629 67.2487 89.7165 66.9919C89.027 66.6984 87.0448 64.277 86.9586 63.8C86.8294 63.3231 87.0879 62.6627 87.3034 62.5527C87.4327 62.4059 87.8205 62.1858 87.8205 62.1858Z" fill="#A99DD8"/>
<path d="M87.5362 61.7192L87.4932 62.9215C87.4932 63.1791 87.6223 63.4367 87.8374 63.5655C88.0524 63.6943 88.3535 63.7802 88.7406 63.6944C89.6008 63.5655 89.6868 63.3079 89.7728 62.1056C89.8158 60.9034 87.5362 61.7192 87.5362 61.7192Z" fill="#E2DCFF"/>
<path d="M91.6984 59.9242C91.6984 59.9242 92.7164 59.3534 93.3574 60.2095C93.9984 61.0248 94.8656 62.9814 94.9033 64.3267C94.941 65.6311 93.923 65.5496 93.3574 65.2642C92.7541 64.9381 91.0197 62.2477 90.9443 61.7178C90.8312 61.1879 91.0574 60.4541 91.2459 60.3318C91.3591 60.1687 91.6984 59.9242 91.6984 59.9242Z" fill="#A99DD8"/>
<path d="M91.527 59.4384L91.484 60.6407C91.484 60.8983 91.613 61.1559 91.828 61.2848C92.0431 61.4136 92.3442 61.4995 92.7313 61.4136C93.5916 61.2848 93.6775 61.0271 93.7636 59.8248C93.8066 58.6226 91.527 59.4384 91.527 59.4384Z" fill="#E2DCFF"/>
<path d="M82.3852 39.5713C82.6978 34.5314 87.894 40.3023 87.894 40.3023L91.4493 43.7649L94.6529 47.2275C95.278 47.92 95.5906 48.8049 95.4343 49.7282L94.145 59.4619C94.0669 59.962 93.6762 60.3083 93.1683 60.3083C93.012 60.3083 92.8557 60.3083 92.6995 60.2698C91.5274 60.0775 91.6446 59.0002 91.6446 59.0002L91.879 49.8821L85.1201 45.8809C85.1592 45.8809 82.0727 44.6113 82.3852 39.5713Z" fill="#553DB4"/>
<path d="M78.3955 41.3329C78.708 36.167 83.9042 42.0822 83.9042 42.0822L87.4595 45.6313L90.6632 49.1805C91.2883 49.8903 91.6008 50.7973 91.4446 51.7437L90.1553 61.7207C90.0771 62.2334 89.6864 62.5883 89.1785 62.5883C89.0223 62.5883 88.866 62.5883 88.7097 62.5489C87.5377 62.3517 87.6548 61.2475 87.6548 61.2475L87.8892 51.9015L81.1303 47.8002C81.1694 47.8002 78.0829 46.4595 78.3955 41.3329Z" fill="#553DB4"/>
<path d="M81.6419 25.5237C77.7252 27.1297 77.8028 29.4239 77.8028 29.4239C77.8028 29.4239 78.5783 37.7978 78.3069 43.4186C78.1905 45.7511 90.9103 45.9423 89.0101 39.7097C86.7608 32.3682 87.614 26.4032 86.5669 25.4855C85.5199 24.5295 82.6502 25.1031 81.6419 25.5237Z" fill="#A99DD8"/>
<path d="M80.1143 27.4327C80.3086 28.1958 81.3581 28.5592 82.4463 28.3048C83.5346 28.0505 84.2342 27.2147 84.0399 26.4879C83.8456 25.7248 82.7961 25.3614 81.7079 25.6157C80.6196 25.8701 79.92 26.6696 80.1143 27.4327Z" fill="#FBC1B1"/>
<path d="M82.3627 25.3275C83.0385 25.3275 83.572 25.6758 83.7143 26.2177C83.8921 26.9143 83.2875 27.6885 82.3983 27.9207C81.5091 28.1529 80.6199 27.8046 80.4776 27.1079C80.4065 26.7983 80.4776 26.4112 80.7266 26.1016C80.9756 25.7532 81.3668 25.521 81.7936 25.4049C82.007 25.3661 82.1849 25.3275 82.3627 25.3275ZM81.8292 28.3851C82.0426 28.3851 82.256 28.3464 82.4694 28.3077C83.5364 27.9981 84.2478 27.0305 84.0344 26.1403C83.821 25.25 82.754 24.7469 81.6869 25.0565C81.189 25.2113 80.7266 25.4823 80.4421 25.908C80.1219 26.3338 80.0152 26.7982 80.1219 27.224C80.2998 27.9207 81.0112 28.3851 81.8292 28.3851Z" fill="white"/>
<path d="M82.8996 25.2275C82.8996 25.2275 82.8668 25.3899 82.9324 26.6893C82.9653 27.0954 81.7831 27.4608 81.4875 27.0954C81.1919 26.7299 81.3233 26.3238 81.2248 24.9432C81.1591 23.5626 82.8996 25.2275 82.8996 25.2275Z" fill="#FBC1B1"/>
<path d="M81.223 24.9648C81.223 24.9648 81.5189 26.2086 82.9331 26.675L82.9002 25.5478L81.223 24.9648Z" fill="#EA9C92"/>
<path d="M80.1778 21.617C79.7764 23.3032 80.6888 24.9894 82.2217 25.4311C83.7547 25.8727 85.2876 24.869 85.689 23.1828C86.0905 21.4966 85.1781 19.8104 83.6452 19.3688C82.1487 18.9271 80.5793 19.9308 80.1778 21.617Z" fill="#FBC1B1"/>
<path d="M82.3634 22.4C82.3634 22.4 83.8842 23.2101 84.9452 23.2551C86.0062 23.2551 85.7586 22.1299 85.7586 22.1299L82.6463 21.5449L82.3634 22.4Z" fill="#EA9C92"/>
<path d="M85.5942 22.7967C85.5942 22.7967 84.1591 22.1585 82.8793 22.4377C82.569 22.5175 82.2975 22.677 82.1036 22.9163C82.026 22.9961 81.9484 23.0759 81.8709 23.0759C81.6382 23.1158 81.2891 22.1584 80.8237 22.1584C80.397 22.1185 80.0868 22.4377 80.4358 23.036C80.7849 23.6343 80.6686 24.2726 80.5134 24.3922C80.3583 24.472 78.613 23.1158 80.1256 19.9646C81.677 16.8134 85.5942 18.5286 86.2147 19.1668C86.2147 19.1668 86.874 19.7253 87.3782 19.2466C87.4558 19.2067 88.0376 23.7141 85.5942 22.7967Z" fill="#FFAD00"/>
<path d="M79.802 35.4424V37.7953C79.802 38.0744 79.9137 38.3137 80.0999 38.5131L84.6431 42.9397L84.1217 43.7772L78.1262 39.1113C77.8283 38.9119 77.6793 38.553 77.6421 38.1941L77.2324 34.0864L79.802 35.4424Z" fill="#FBC1B1"/>
<path d="M77.977 27.8154C77.977 27.8154 76.6096 30.0498 76.0922 35.8753C76.0922 35.8753 78.4206 36.6733 79.751 36.2344C81.0815 35.7556 77.977 27.8154 77.977 27.8154Z" fill="#A99DD8"/>
<path d="M80.0833 30.6655C80.0833 30.6655 80.6153 33.5703 80.6533 34.9661C80.6533 35.3433 80.4253 35.6828 80.0833 35.796V30.6655Z" fill="#553DB4"/>
<path d="M81.2229 45.5249L82.2858 45.3731L89.1359 41.5777C89.3721 41.4639 89.7264 41.4639 90.002 41.6157L94.8442 44.3104L95.4741 44.2345V44.8417C95.4741 44.9176 95.4347 44.9935 95.3166 45.0694L87.5612 49.3961C87.3249 49.51 86.9707 49.51 86.6951 49.3582L81.4198 46.4358C81.2623 46.3599 81.2229 46.246 81.2229 46.1701V45.5249Z" fill="#A99DD8"/>
<path d="M86.3533 43.4806L86.8271 43.207H92.1969L94.8424 44.7315L95.4741 44.6533V45.2787C95.4741 45.3569 95.4346 45.4351 95.3162 45.5133L87.5379 49.9694C87.4194 50.0476 87.2615 50.0476 87.1036 50.0476L86.3533 43.4806Z" fill="#553DB4"/>
<path d="M94.9041 44.3942L95.4741 44.3467V45.1067C95.4741 45.2017 95.3927 45.2967 95.1483 45.3917L94.9041 45.4868V44.3942Z" fill="#A99DD8"/>
<path d="M87.4937 49.9691C87.3353 50.0816 87.0819 50.0817 86.9236 49.9129V48.3374H87.4937V49.9691Z" fill="white"/>
<path d="M87.5827 48.8382L95.3194 44.4841C95.555 44.3695 95.5158 44.1404 95.2409 43.9876L89.9783 41.0466C89.7427 40.8938 89.35 40.8939 89.1144 41.0084L81.3776 45.3626C81.142 45.4772 81.1813 45.7063 81.4562 45.8591L86.7187 48.8001C86.9544 48.9146 87.3471 48.9528 87.5827 48.8382Z" fill="white"/>
<path d="M87.7718 48.2551L94.205 44.6476C94.4012 44.5324 94.3619 44.3789 94.1658 44.2638L91.3415 42.7286C91.1453 42.6135 90.8315 42.6134 90.6353 42.6902L84.202 46.2978C84.0059 46.413 84.0452 46.5665 84.2413 46.6816L87.0657 48.2168C87.2618 48.3703 87.5756 48.3703 87.7718 48.2551Z" fill="#E2DCFF"/>
<path d="M89.651 41.1669L89.7302 41.6597C89.8095 42.0821 89.7699 42.4692 89.6906 42.8916L89.6113 43.314C89.5717 43.5604 89.334 43.7364 89.0962 43.7716C88.898 43.8068 88.6999 43.666 88.6603 43.49L88.5414 42.4693C88.5414 42.4693 88.264 42.8212 88.1055 42.8212C87.9469 42.8212 88.264 41.8005 88.581 41.2021C88.898 40.6038 89.651 41.1669 89.651 41.1669Z" fill="#FBC1B1"/>
<path d="M86.923 32.7441L87.8208 34.3279C88.0346 34.7049 88.1628 35.1197 88.2056 35.5345L88.5904 40.9267L89.7875 40.889L90.3433 34.8558C90.3433 34.6672 90.3433 34.4787 90.3005 34.2902L89.702 31.2358L86.923 32.7441Z" fill="#FBC1B1"/>
<path d="M88.03 49.4774L88.6435 48.6046L95.2771 44.6374C95.5071 44.5184 95.6605 44.1613 95.6605 43.8836V38.2502L96.0439 37.7345L95.6988 37.5361C95.6222 37.4964 95.5455 37.4964 95.4305 37.5361L87.8767 42.0587C87.6466 42.1777 87.4932 42.5348 87.4932 42.8125V48.9617C87.4932 49.1203 87.5316 49.2393 87.6466 49.279L88.03 49.4774Z" fill="#553DB4"/>
<path d="M92.5459 46.0571L93.0124 45.7859L95.6553 41.2152V38.2326L96.0439 37.7291L95.6941 37.5354C95.6164 37.4967 95.5387 37.4967 95.4221 37.5354L87.7653 41.9512C87.6487 42.0287 87.5321 42.1448 87.4932 42.2998L92.5459 46.0571Z" fill="#553DB4"/>
<path d="M95.9239 38.0764L96.0439 37.7853L95.7739 37.5427C95.7139 37.4942 95.6539 37.4942 95.5639 37.5427L95.4739 37.6397L95.9239 38.0764Z" fill="#A99DD8"/>
<path d="M87.8184 42.0664C87.6556 42.2293 87.4927 42.4736 87.4927 42.7586L88.2664 43.2065L88.6328 42.555L87.8184 42.0664Z" fill="#553DB4" fill-opacity="0.46"/>
<path d="M87.8873 42.4776L95.6499 38.1203C95.8863 38.0056 96.0439 38.1203 96.0439 38.4261V44.3505C96.0439 44.6181 95.8863 44.962 95.6499 45.0767L87.8873 49.434C87.6508 49.5487 87.4932 49.434 87.4932 49.1283V43.2038C87.4932 42.8981 87.6508 42.5923 87.8873 42.4776Z" fill="#A99DD8"/>
<path d="M84.0726 43.4458L84.2038 43.7033C84.3786 43.9975 84.5972 44.2182 84.9032 44.3653L85.7775 44.8066C86.0398 44.9537 86.3895 44.9537 86.6518 44.8066H86.6955C86.9577 44.6595 87.0015 44.3285 86.7829 44.1446L85.9086 43.3723C85.9086 43.3723 86.3895 43.7033 86.5643 43.5561C86.6518 43.4458 86.0834 43.0045 85.6463 42.9677C85.2092 42.9677 84.772 42.6367 84.772 42.6367L84.0726 43.4458Z" fill="#FBC1B1"/>
<path d="M86.3926 24.9648C86.3926 24.9648 89.2145 28.0977 90.3433 30.9986C90.3433 30.9986 89.365 32.7778 87.0322 33.474C84.6619 34.2088 86.3926 24.9648 86.3926 24.9648Z" fill="#A99DD8"/>
<path d="M87.3952 33.5164L86.9234 28.9561L88.0635 33.2436C87.8276 33.3216 87.631 33.3995 87.3952 33.5164Z" fill="#553DB4"/>
<path d="M84.073 24.5681L84.6431 24.3955C84.6431 24.3955 84.3581 24.827 83.959 24.9421C83.56 25.0571 83.503 24.7119 83.503 24.7119L84.073 24.5681Z" fill="white"/>
</g>
</svg>
